<svg viewBox="-370,-463.8692932128906,819.822021484375,828.59326171875" xmlns="http://www.w3.org/2000/svg" xmlns:xlink="http://www.w3.org/1999/xlink"><g fill-opacity="0.6"><path fill="rgb(110, 64, 170)" d="M0.58,-184.599A184.6,184.6,0,0,1,54.856,176.261L27.852,88.522A92.8,92.8,0,0,0,0.58,-92.798Z"><title>flare/vis
432,629</title></path><path fill="rgb(191, 60, 175)" d="M53.748,176.602A184.6,184.6,0,0,1,-130.298,130.766L-65.297,65.94A92.8,92.8,0,0,0,26.743,88.863Z"><title>flare/util
165,157</title></path><path fill="rgb(254, 75, 131)" d="M-131.117,129.944A184.6,184.6,0,0,1,-183.045,23.909L-91.981,12.305A92.8,92.8,0,0,0,-66.116,65.119Z"><title>flare/animate
100,024</title></path><path fill="rgb(255, 120, 71)" d="M-183.192,22.759A184.6,184.6,0,0,1,-165.435,-81.906L-83.293,-40.916A92.8,92.8,0,0,0,-92.127,11.155Z"><title>flare/query
89,721</title></path><path fill="rgb(226, 183, 47)" d="M-164.917,-82.944A184.6,184.6,0,0,1,-131.254,-129.806L-66.185,-65.049A92.8,92.8,0,0,0,-82.775,-41.954Z"><title>flare/analytics
48,716</title></path><path fill="rgb(175, 240, 91)" d="M-130.436,-130.628A184.6,184.6,0,0,1,-101.982,-153.873L-51.507,-77.194A92.8,92.8,0,0,0,-65.367,-65.871Z"><title>flare/scale
31,294</title></path><path fill="rgb(82, 246, 103)" d="M-101.013,-154.511A184.6,184.6,0,0,1,-69.548,-170.998L-35.229,-85.853A92.8,92.8,0,0,0,-50.538,-77.831Z"><title>flare/data
30,284</title></path><path fill="rgb(29, 223, 163)" d="M-68.472,-171.431A184.6,184.6,0,0,1,-34.786,-181.293L-17.771,-91.083A92.8,92.8,0,0,0,-34.154,-86.287Z"><title>flare/physics
29,934</title></path><path fill="rgb(35, 171, 216)" d="M-33.646,-181.508A184.6,184.6,0,0,1,-5.572,-184.516L-3.09,-92.749A92.8,92.8,0,0,0,-16.631,-91.298Z"><title>flare/display
24,254</title></path><path fill="rgb(76, 110, 219)" d="M-4.413,-184.547A184.6,184.6,0,0,1,-0.58,-184.599L-0.58,-92.798A92.8,92.8,0,0,0,-1.93,-92.78Z"><title>flare/flex
4,116</title></path><path fill="rgb(110, 64, 170)" d="M0.58,-277.399A277.4,277.4,0,0,1,259.23,-98.746L173.374,-66.247A185.6,185.6,0,0,0,0.58,-185.599Z"><title>flare/vis/operator
183,967</title></path><path fill="rgb(110, 64, 170)" d="M259.64,-97.661A277.4,277.4,0,0,1,259.349,98.433L173.59,65.679A185.6,185.6,0,0,0,173.785,-65.162Z"><title>flare/vis/data
110,583</title></path><path fill="rgb(110, 64, 170)" d="M258.935,99.516A277.4,277.4,0,0,1,219.808,169.22L147.184,113.068A185.6,185.6,0,0,0,173.177,66.763Z"><title>flare/vis/controls
44,639</title></path><path fill="rgb(110, 64, 170)" d="M219.098,170.138A277.4,277.4,0,0,1,174.02,216.027L116.581,144.417A185.6,185.6,0,0,0,146.474,113.985Z"><title>flare/vis/legend
36,003</title></path><path fill="rgb(110, 64, 170)" d="M173.116,216.753A277.4,277.4,0,0,1,122.015,249.125L81.809,166.597A185.6,185.6,0,0,0,115.676,145.142Z"><title>flare/vis/axis
33,886</title></path><path fill="rgb(110, 64, 170)" d="M120.972,249.633A277.4,277.4,0,0,1,94.27,260.89L63.254,174.489A185.6,185.6,0,0,0,80.766,167.105Z"><title>flare/vis/Visualization
16,540</title></path><path fill="rgb(110, 64, 170)" d="M93.179,261.282A277.4,277.4,0,0,1,82.155,264.955L55.151,177.217A185.6,185.6,0,0,0,62.162,174.881Z"><title>flare/vis/events
7,011</title></path><path fill="rgb(191, 60, 175)" d="M81.046,265.297A277.4,277.4,0,0,1,43.079,274.035L29.012,183.318A185.6,185.6,0,0,0,54.042,177.558Z"><title>flare/util/Strings
22,026</title></path><path fill="rgb(191, 60, 175)" d="M41.933,274.212A277.4,277.4,0,0,1,8.402,277.273L5.813,185.509A185.6,185.6,0,0,0,27.866,183.496Z"><title>flare/util/Shapes
19,118</title></path><path fill="rgb(191, 60, 175)" d="M7.242,277.305A277.4,277.4,0,0,1,-23.842,276.373L-15.761,184.93A185.6,185.6,0,0,0,4.654,185.542Z"><title>flare/util/Maths
17,705</title></path><path fill="rgb(191, 60, 175)" d="M-24.998,276.271A277.4,277.4,0,0,1,-46.538,273.468L-30.948,183.002A185.6,185.6,0,0,0,-16.916,184.827Z"><title>flare/util/Displays
12,555</title></path><path fill="rgb(191, 60, 175)" d="M-47.681,273.271A277.4,277.4,0,0,1,-67.84,268.977L-45.204,180.011A185.6,185.6,0,0,0,-32.091,182.805Z"><title>flare/util/palette
11,946</title></path><path fill="rgb(191, 60, 175)" d="M-68.965,268.691A277.4,277.4,0,0,1,-87.077,263.379L-58.079,176.279A185.6,185.6,0,0,0,-46.328,179.725Z"><title>flare/util/Geometry
10,993</title></path><path fill="rgb(191, 60, 175)" d="M-88.178,263.012A277.4,277.4,0,0,1,-105.176,256.688L-70.192,171.815A185.6,185.6,0,0,0,-59.179,175.912Z"><title>flare/util/heap
10,587</title></path><path fill="rgb(191, 60, 175)" d="M-106.248,256.246A277.4,277.4,0,0,1,-121.807,249.227L-81.325,166.834A185.6,185.6,0,0,0,-71.265,171.373Z"><title>flare/util/Colors
10,001</title></path><path fill="rgb(191, 60, 175)" d="M-122.848,248.715A277.4,277.4,0,0,1,-136.874,241.28L-91.411,161.528A185.6,185.6,0,0,0,-82.366,166.323Z"><title>flare/util/math
9,346</title></path><path fill="rgb(191, 60, 175)" d="M-137.882,240.706A277.4,277.4,0,0,1,-149.76,233.501L-100.038,156.332A185.6,185.6,0,0,0,-92.419,160.954Z"><title>flare/util/Arrays
8,258</title></path><path fill="rgb(191, 60, 175)" d="M-150.735,232.873A277.4,277.4,0,0,1,-162.144,225.078L-108.33,150.705A185.6,185.6,0,0,0,-101.013,155.704Z"><title>flare/util/Dates
8,217</title></path><path fill="rgb(191, 60, 175)" d="M-163.084,224.398A277.4,277.4,0,0,1,-172.161,217.512L-115.037,145.65A185.6,185.6,0,0,0,-109.27,150.025Z"><title>flare/util/Sort
6,887</title></path><path fill="rgb(191, 60, 175)" d="M-173.069,216.79A277.4,277.4,0,0,1,-181.371,209.894L-121.204,140.559A185.6,185.6,0,0,0,-115.945,144.928Z"><title>flare/util/Stats
6,557</title></path><path fill="rgb(191, 60, 175)" d="M-182.247,209.134A277.4,277.4,0,0,1,-188.916,203.13L-126.257,136.039A185.6,185.6,0,0,0,-122.08,139.799Z"><title>flare/util/Property
5,559</title></path><path fill="rgb(191, 60, 175)" d="M-189.763,202.338A277.4,277.4,0,0,1,-191.996,200.221L-128.32,134.095A185.6,185.6,0,0,0,-127.105,135.247Z"><title>flare/util/Filter
2,324</title></path><path fill="rgb(191, 60, 175)" d="M-192.821,199.426A277.4,277.4,0,0,1,-193.951,198.327L-129.633,132.826A185.6,185.6,0,0,0,-129.146,133.299Z"><title>flare/util/Orientation
1,486</title></path><path fill="rgb(191, 60, 175)" d="M-194.593,197.697A277.4,277.4,0,0,1,-195.253,197.046L-130.56,131.915A185.6,185.6,0,0,0,-130.275,132.196Z"><title>flare/util/IValueProxy
874</title></path><path fill="rgb(191, 60, 175)" d="M-195.593,196.708A277.4,277.4,0,0,1,-195.881,196.422L-131.024,131.454A185.6,185.6,0,0,0,-130.9,131.577Z"><title>flare/util/IPredicate
383</title></path><path fill="rgb(191, 60, 175)" d="M-196.075,196.228A277.4,277.4,0,0,1,-196.326,195.977L-131.326,131.152A185.6,185.6,0,0,0,-131.218,131.261Z"><title>flare/util/IEvaluable
335</title></path><path fill="rgb(254, 75, 131)" d="M-196.825,195.475A277.4,277.4,0,0,1,-223.415,164.427L-149.367,110.168A185.6,185.6,0,0,0,-131.825,130.65Z"><title>flare/animate/interpolate
23,081</title></path><path fill="rgb(254, 75, 131)" d="M-224.101,163.492A277.4,277.4,0,0,1,-243.015,133.77L-162.501,89.67A185.6,185.6,0,0,0,-150.052,109.232Z"><title>flare/animate/Transitioner
19,975</title></path><path fill="rgb(254, 75, 131)" d="M-243.572,132.753A277.4,277.4,0,0,1,-256.42,105.828L-171.49,70.983A185.6,185.6,0,0,0,-163.059,88.652Z"><title>flare/animate/Easing
17,010</title></path><path fill="rgb(254, 75, 131)" d="M-256.86,104.754A277.4,277.4,0,0,1,-262.346,90.139L-175.466,60.491A185.6,185.6,0,0,0,-171.93,69.91Z"><title>flare/animate/Transition
9,201</title></path><path fill="rgb(254, 75, 131)" d="M-262.721,89.042A277.4,277.4,0,0,1,-265.699,79.718L-177.716,53.52A185.6,185.6,0,0,0,-175.84,59.393Z"><title>flare/animate/Tween
6,006</title></path><path fill="rgb(254, 75, 131)" d="M-266.03,78.606A277.4,277.4,0,0,1,-268.563,69.461L-179.639,46.66A185.6,185.6,0,0,0,-178.047,52.409Z"><title>flare/animate/FunctionSequence
5,842</title></path><path fill="rgb(254, 75, 131)" d="M-268.851,68.337A277.4,277.4,0,0,1,-270.934,59.545L-181.232,40.028A185.6,185.6,0,0,0,-179.927,45.536Z"><title>flare/animate/Scheduler
5,593</title></path><path fill="rgb(254, 75, 131)" d="M-271.18,58.412A277.4,277.4,0,0,1,-272.92,49.655L-182.568,33.412A185.6,185.6,0,0,0,-181.479,38.894Z"><title>flare/animate/Sequence
5,534</title></path><path fill="rgb(254, 75, 131)" d="M-273.125,48.514A277.4,277.4,0,0,1,-274.45,40.345L-183.598,27.184A185.6,185.6,0,0,0,-182.773,32.27Z"><title>flare/animate/Parallel
5,176</title></path><path fill="rgb(254, 75, 131)" d="M-274.595,39.35A277.4,277.4,0,0,1,-274.76,38.178L-183.814,25.683A185.6,185.6,0,0,0,-183.743,26.189Z"><title>flare/animate/TransitionEvent
1,116</title></path><path fill="rgb(254, 75, 131)" d="M-274.872,37.364A277.4,277.4,0,0,1,-275.019,36.27L-183.99,24.397A185.6,185.6,0,0,0,-183.926,24.869Z"><title>flare/animate/ISchedulable
1,041</title></path><path fill="rgb(254, 75, 131)" d="M-275.092,35.706A277.4,277.4,0,0,1,-275.153,35.234L-184.09,23.63A185.6,185.6,0,0,0,-184.063,23.834Z"><title>flare/animate/Pause
449</title></path><path fill="rgb(255, 120, 71)" d="M-275.248,34.489A277.4,277.4,0,0,1,-277.233,9.621L-185.482,6.629A185.6,185.6,0,0,0,-184.184,22.885Z"><title>flare/query/methods
14,326</title></path><path fill="rgb(255, 120, 71)" d="M-277.271,8.462A277.4,277.4,0,0,1,-276.955,-15.7L-185.313,-10.313A185.6,185.6,0,0,0,-185.519,5.47Z"><title>flare/query/Query
13,896</title></path><path fill="rgb(255, 120, 71)" d="M-276.887,-16.858A277.4,277.4,0,0,1,-276.269,-25.026L-184.86,-16.553A185.6,185.6,0,0,0,-185.245,-11.471Z"><title>flare/query/Expression
5,130</title></path><path fill="rgb(255, 120, 71)" d="M-276.162,-26.181A277.4,277.4,0,0,1,-275.274,-34.275L-184.201,-22.742A185.6,185.6,0,0,0,-184.753,-17.708Z"><title>flare/query/Comparison
5,103</title></path><path fill="rgb(255, 120, 71)" d="M-275.129,-35.425A277.4,277.4,0,0,1,-274.24,-41.752L-183.514,-27.745A185.6,185.6,0,0,0,-184.056,-23.892Z"><title>flare/query/DateUtil
4,141</title></path><path fill="rgb(255, 120, 71)" d="M-274.063,-42.898A277.4,277.4,0,0,1,-273.006,-49.178L-182.694,-32.715A185.6,185.6,0,0,0,-183.337,-28.892Z"><title>flare/query/StringUtil
4,130</title></path><path fill="rgb(255, 120, 71)" d="M-272.798,-50.32A277.4,277.4,0,0,1,-271.659,-56.142L-181.798,-37.375A185.6,185.6,0,0,0,-182.486,-33.856Z"><title>flare/query/Arithmetic
3,891</title></path><path fill="rgb(255, 120, 71)" d="M-271.422,-57.278A277.4,277.4,0,0,1,-270.194,-62.816L-180.822,-41.841A185.6,185.6,0,0,0,-181.561,-38.511Z"><title>flare/query/Match
3,748</title></path><path fill="rgb(255, 120, 71)" d="M-269.929,-63.945A277.4,277.4,0,0,1,-268.598,-69.325L-179.759,-46.198A185.6,185.6,0,0,0,-180.557,-42.97Z"><title>flare/query/CompositeExpression
3,677</title></path><path fill="rgb(255, 120, 71)" d="M-268.306,-70.448A277.4,277.4,0,0,1,-266.874,-75.69L-178.61,-50.457A185.6,185.6,0,0,0,-179.466,-47.32Z"><title>flare/query/ExpressionIterator
3,617</title></path><path fill="rgb(255, 120, 71)" d="M-266.555,-76.805A277.4,277.4,0,0,1,-265.202,-81.354L-177.495,-54.248A185.6,185.6,0,0,0,-178.291,-51.572Z"><title>flare/query/Fn
3,240</title></path><path fill="rgb(255, 120, 71)" d="M-264.86,-82.462A277.4,277.4,0,0,1,-263.608,-86.381L-176.432,-57.612A185.6,185.6,0,0,0,-177.153,-55.356Z"><title>flare/query/BinaryExpression
2,893</title></path><path fill="rgb(255, 120, 71)" d="M-263.244,-87.483A277.4,277.4,0,0,1,-262.015,-91.099L-175.369,-60.771A185.6,185.6,0,0,0,-176.068,-58.714Z"><title>flare/query/If
2,732</title></path><path fill="rgb(255, 120, 71)" d="M-261.631,-92.194A277.4,277.4,0,0,1,-260.77,-94.602L-174.539,-63.115A185.6,185.6,0,0,0,-174.986,-61.865Z"><title>flare/query/IsA
2,039</title></path><path fill="rgb(255, 120, 71)" d="M-260.373,-95.692A277.4,277.4,0,0,1,-259.584,-97.809L-173.748,-65.262A185.6,185.6,0,0,0,-174.141,-64.204Z"><title>flare/query/Variance
1,876</title></path><path fill="rgb(255, 120, 71)" d="M-259.173,-98.894A277.4,277.4,0,0,1,-258.531,-100.561L-173.045,-67.103A185.6,185.6,0,0,0,-173.336,-66.346Z"><title>flare/query/AggregateExpression
1,616</title></path><path fill="rgb(255, 120, 71)" d="M-258.108,-101.641A277.4,277.4,0,0,1,-257.464,-103.263L-172.333,-68.912A185.6,185.6,0,0,0,-172.622,-68.183Z"><title>flare/query/Range
1,594</title></path><path fill="rgb(255, 120, 71)" d="M-257.03,-104.339A277.4,277.4,0,0,1,-256.396,-105.887L-171.62,-70.668A185.6,185.6,0,0,0,-171.898,-69.988Z"><title>flare/query/Not
1,554</title></path><path fill="rgb(255, 120, 71)" d="M-255.996,-106.85A277.4,277.4,0,0,1,-255.497,-108.037L-171.005,-72.143A185.6,185.6,0,0,0,-171.22,-71.631Z"><title>flare/query/Literal
1,214</title></path><path fill="rgb(255, 120, 71)" d="M-255.149,-108.857A277.4,277.4,0,0,1,-254.679,-109.953L-170.454,-73.436A185.6,185.6,0,0,0,-170.657,-72.963Z"><title>flare/query/Variable
1,124</title></path><path fill="rgb(255, 120, 71)" d="M-254.341,-110.731A277.4,277.4,0,0,1,-253.873,-111.801L-169.915,-74.675A185.6,185.6,0,0,0,-170.117,-74.214Z"><title>flare/query/Xor
1,101</title></path><path fill="rgb(255, 120, 71)" d="M-253.545,-112.542A277.4,277.4,0,0,1,-253.101,-113.537L-169.395,-75.846A185.6,185.6,0,0,0,-169.587,-75.417Z"><title>flare/query/And
1,027</title></path><path fill="rgb(255, 120, 71)" d="M-252.788,-114.231A277.4,277.4,0,0,1,-252.363,-115.168L-168.899,-76.944A185.6,185.6,0,0,0,-169.083,-76.54Z"><title>flare/query/Or
970</title></path><path fill="rgb(255, 120, 71)" d="M-252.061,-115.827A277.4,277.4,0,0,1,-251.646,-116.726L-168.418,-77.991A185.6,185.6,0,0,0,-168.597,-77.603Z"><title>flare/query/Distinct
933</title></path><path fill="rgb(255, 120, 71)" d="M-251.353,-117.356A277.4,277.4,0,0,1,-250.952,-118.212L-167.952,-78.99A185.6,185.6,0,0,0,-168.125,-78.621Z"><title>flare/query/Average
891</title></path><path fill="rgb(255, 120, 71)" d="M-250.669,-118.809A277.4,277.4,0,0,1,-250.285,-119.617L-167.504,-79.936A185.6,185.6,0,0,0,-167.67,-79.588Z"><title>flare/query/Maximum
843</title></path><path fill="rgb(255, 120, 71)" d="M-250.007,-120.196A277.4,277.4,0,0,1,-249.619,-121.001L-167.059,-80.863A185.6,185.6,0,0,0,-167.226,-80.515Z"><title>flare/query/Minimum
843</title></path><path fill="rgb(255, 120, 71)" d="M-249.346,-121.561A277.4,277.4,0,0,1,-248.978,-122.315L-166.627,-81.748A185.6,185.6,0,0,0,-166.786,-81.423Z"><title>flare/query/Sum
791</title></path><path fill="rgb(255, 120, 71)" d="M-248.713,-122.852A277.4,277.4,0,0,1,-248.345,-123.595L-166.204,-82.605A185.6,185.6,0,0,0,-166.363,-82.285Z"><title>flare/query/Count
781</title></path><path fill="rgb(226, 183, 47)" d="M-247.953,-124.38A277.4,277.4,0,0,1,-223.412,-164.432L-149.592,-109.862A185.6,185.6,0,0,0,-165.811,-83.39Z"><title>flare/analytics/graph
26,435</title></path><path fill="rgb(226, 183, 47)" d="M-222.722,-165.365A277.4,277.4,0,0,1,-205.892,-185.901L-137.885,-124.238A185.6,185.6,0,0,0,-148.902,-110.795Z"><title>flare/analytics/cluster
15,207</title></path><path fill="rgb(226, 183, 47)" d="M-205.113,-186.76A277.4,277.4,0,0,1,-197.031,-195.268L-131.963,-130.511A185.6,185.6,0,0,0,-137.106,-125.097Z"><title>flare/analytics/optimization
7,074</title></path><path fill="rgb(175, 240, 91)" d="M-196.213,-196.09A277.4,277.4,0,0,1,-189.403,-202.675L-126.864,-135.473A185.6,185.6,0,0,0,-131.144,-131.334Z"><title>flare/scale/TimeScale
5,833</title></path><path fill="rgb(175, 240, 91)" d="M-188.554,-203.465A277.4,277.4,0,0,1,-182.864,-208.594L-122.493,-139.438A185.6,185.6,0,0,0,-126.015,-136.263Z"><title>flare/scale/QuantitativeScale
4,839</title></path><path fill="rgb(175, 240, 91)" d="M-181.99,-209.357A277.4,277.4,0,0,1,-176.942,-213.64L-118.534,-142.818A185.6,185.6,0,0,0,-121.619,-140.2Z"><title>flare/scale/Scale
4,268</title></path><path fill="rgb(175, 240, 91)" d="M-176.047,-214.378A277.4,277.4,0,0,1,-171.596,-217.958L-114.96,-145.71A185.6,185.6,0,0,0,-117.64,-143.556Z"><title>flare/scale/OrdinalScale
3,770</title></path><path fill="rgb(175, 240, 91)" d="M-170.683,-218.674A277.4,277.4,0,0,1,-167.046,-221.464L-111.919,-148.059A185.6,185.6,0,0,0,-114.047,-146.426Z"><title>flare/scale/LogScale
3,151</title></path><path fill="rgb(175, 240, 91)" d="M-166.118,-222.161A277.4,277.4,0,0,1,-163.481,-224.109L-109.535,-149.831A185.6,185.6,0,0,0,-110.991,-148.756Z"><title>flare/scale/QuantileScale
2,435</title></path><path fill="rgb(175, 240, 91)" d="M-162.542,-224.79A277.4,277.4,0,0,1,-160.365,-226.349L-107.452,-151.332A185.6,185.6,0,0,0,-108.597,-150.513Z"><title>flare/scale/IScaleMap
2,105</title></path><path fill="rgb(175, 240, 91)" d="M-159.417,-227.017A277.4,277.4,0,0,1,-157.645,-228.252L-105.634,-152.607A185.6,185.6,0,0,0,-106.504,-152.001Z"><title>flare/scale/ScaleType
1,821</title></path><path fill="rgb(175, 240, 91)" d="M-156.689,-228.909A277.4,277.4,0,0,1,-155.001,-230.055L-103.866,-153.816A185.6,185.6,0,0,0,-104.678,-153.264Z"><title>flare/scale/RootScale
1,756</title></path><path fill="rgb(175, 240, 91)" d="M-154.103,-230.658A277.4,277.4,0,0,1,-152.94,-231.431L-102.466,-154.752A185.6,185.6,0,0,0,-102.967,-154.418Z"><title>flare/scale/LinearScale
1,316</title></path><path fill="rgb(82, 246, 103)" d="M-152.037,-232.025A277.4,277.4,0,0,1,-124.061,-248.112L-83.177,-165.918A185.6,185.6,0,0,0,-101.563,-155.346Z"><title>flare/data/converters
18,349</title></path><path fill="rgb(82, 246, 103)" d="M-123.023,-248.629A277.4,277.4,0,0,1,-118.601,-250.768L-79.526,-167.699A185.6,185.6,0,0,0,-82.139,-166.435Z"><title>flare/data/DataSource
3,331</title></path><path fill="rgb(82, 246, 103)" d="M-117.551,-251.262A277.4,277.4,0,0,1,-113.099,-253.297L-75.846,-169.395A185.6,185.6,0,0,0,-78.476,-168.193Z"><title>flare/data/DataUtil
3,322</title></path><path fill="rgb(82, 246, 103)" d="M-112.039,-253.768A277.4,277.4,0,0,1,-109.484,-254.88L-73.429,-170.457A185.6,185.6,0,0,0,-74.786,-169.866Z"><title>flare/data/DataSchema
2,165</title></path><path fill="rgb(82, 246, 103)" d="M-108.417,-255.336A277.4,277.4,0,0,1,-106.53,-256.129L-71.453,-171.294A185.6,185.6,0,0,0,-72.362,-170.913Z"><title>flare/data/DataField
1,759</title></path><path fill="rgb(82, 246, 103)" d="M-105.723,-256.463A277.4,277.4,0,0,1,-104.965,-256.774L-70.319,-171.763A185.6,185.6,0,0,0,-70.646,-171.629Z"><title>flare/data/DataTable
772</title></path><path fill="rgb(82, 246, 103)" d="M-104.486,-256.97A277.4,277.4,0,0,1,-103.91,-257.203L-69.591,-172.059A185.6,185.6,0,0,0,-69.84,-171.959Z"><title>flare/data/DataSet
586</title></path><path fill="rgb(29, 223, 163)" d="M-103.165,-257.503A277.4,277.4,0,0,1,-86.272,-263.644L-57.904,-176.336A185.6,185.6,0,0,0,-68.846,-172.359Z"><title>flare/physics/NBodyForce
10,498</title></path><path fill="rgb(29, 223, 163)" d="M-85.169,-264.002A277.4,277.4,0,0,1,-68.803,-268.732L-46.22,-179.753A185.6,185.6,0,0,0,-56.801,-176.695Z"><title>flare/physics/Simulation
9,983</title></path><path fill="rgb(29, 223, 163)" d="M-67.679,-269.017A277.4,277.4,0,0,1,-63.808,-269.962L-42.879,-180.579A185.6,185.6,0,0,0,-45.096,-180.038Z"><title>flare/physics/Particle
2,822</title></path><path fill="rgb(29, 223, 163)" d="M-62.678,-270.226A277.4,277.4,0,0,1,-59.875,-270.861L-40.248,-181.183A185.6,185.6,0,0,0,-41.749,-180.843Z"><title>flare/physics/Spring
2,213</title></path><path fill="rgb(29, 223, 163)" d="M-58.742,-271.109A277.4,277.4,0,0,1,-56.88,-271.506L-38.244,-181.617A185.6,185.6,0,0,0,-39.115,-181.431Z"><title>flare/physics/SpringForce
1,681</title></path><path fill="rgb(29, 223, 163)" d="M-55.813,-271.727A277.4,277.4,0,0,1,-54.424,-272.009L-36.579,-181.96A185.6,185.6,0,0,0,-37.178,-181.838Z"><title>flare/physics/GravityForce
1,336</title></path><path fill="rgb(29, 223, 163)" d="M-53.52,-272.188A277.4,277.4,0,0,1,-52.394,-272.407L-35.189,-182.234A185.6,185.6,0,0,0,-35.675,-182.139Z"><title>flare/physics/DragForce
1,082</title></path><path fill="rgb(29, 223, 163)" d="M-51.869,-272.507A277.4,277.4,0,0,1,-51.537,-272.571L-34.521,-182.361A185.6,185.6,0,0,0,-34.665,-182.334Z"><title>flare/physics/IForce
319</title></path><path fill="rgb(35, 171, 216)" d="M-50.847,-272.7A277.4,277.4,0,0,1,-33.862,-275.325L-22.847,-184.188A185.6,185.6,0,0,0,-33.832,-182.49Z"><title>flare/display/TextSprite
10,066</title></path><path fill="rgb(35, 171, 216)" d="M-32.711,-275.465A277.4,277.4,0,0,1,-17.833,-276.826L-12.123,-185.204A185.6,185.6,0,0,0,-21.695,-184.328Z"><title>flare/display/DirtySprite
8,833</title></path><path fill="rgb(35, 171, 216)" d="M-16.675,-276.898A277.4,277.4,0,0,1,-11.237,-277.172L-7.71,-185.44A185.6,185.6,0,0,0,-10.965,-185.276Z"><title>flare/display/RectSprite
3,623</title></path><path fill="rgb(35, 171, 216)" d="M-10.078,-277.217A277.4,277.4,0,0,1,-8.082,-277.282L-5.599,-185.516A185.6,185.6,0,0,0,-6.551,-185.484Z"><title>flare/display/LineSprite
1,732</title></path><path fill="rgb(76, 110, 219)" d="M-6.922,-277.314A277.4,277.4,0,0,1,-0.58,-277.399L-0.58,-185.599A185.6,185.6,0,0,0,-4.44,-185.547Z"><title>flare/flex/FlareVis
4,116</title></path><path fill="rgb(110, 64, 170)" d="M0.58,-370.2A370.2,370.2,0,0,1,240.943,-281.059L181.086,-211.457A278.4,278.4,0,0,0,0.58,-278.399Z"><title>flare/vis/operator/layout
108,083</title></path><path fill="rgb(110, 64, 170)" d="M241.823,-280.303A370.2,370.2,0,0,1,270.869,-252.345L203.603,-189.875A278.4,278.4,0,0,0,181.966,-210.701Z"><title>flare/vis/operator/label
17,057</title></path><path fill="rgb(110, 64, 170)" d="M271.659,-251.495A370.2,370.2,0,0,1,294.236,-224.662L221.186,-169.066A278.4,278.4,0,0,0,204.392,-189.025Z"><title>flare/vis/operator/encoder
14,897</title></path><path fill="rgb(110, 64, 170)" d="M294.939,-223.739A370.2,370.2,0,0,1,313.915,-196.229L235.996,-147.691A278.4,278.4,0,0,0,221.889,-168.143Z"><title>flare/vis/operator/distortion
14,219</title></path><path fill="rgb(110, 64, 170)" d="M314.528,-195.244A370.2,370.2,0,0,1,328.277,-171.121L246.806,-128.815A278.4,278.4,0,0,0,236.609,-146.706Z"><title>flare/vis/operator/filter
11,893</title></path><path fill="rgb(110, 64, 170)" d="M328.812,-170.091A370.2,370.2,0,0,1,333.982,-159.7L251.101,-120.228A278.4,278.4,0,0,0,247.341,-127.785Z"><title>flare/vis/operator/OperatorList
5,248</title></path><path fill="rgb(110, 64, 170)" d="M334.481,-158.653A370.2,370.2,0,0,1,338.252,-150.444L254.316,-113.269A278.4,278.4,0,0,0,251.6,-119.181Z"><title>flare/vis/operator/OperatorSequence
4,190</title></path><path fill="rgb(110, 64, 170)" d="M338.722,-149.384A370.2,370.2,0,0,1,340.755,-144.686L256.2,-108.94A278.4,278.4,0,0,0,254.786,-112.209Z"><title>flare/vis/operator/OperatorSwitch
2,581</title></path><path fill="rgb(110, 64, 170)" d="M341.207,-143.617A370.2,370.2,0,0,1,343.077,-139.091L257.949,-104.733A278.4,278.4,0,0,0,256.652,-107.871Z"><title>flare/vis/operator/Operator
2,490</title></path><path fill="rgb(110, 64, 170)" d="M343.511,-138.015A370.2,370.2,0,0,1,344.896,-134.518L259.318,-101.295A278.4,278.4,0,0,0,258.383,-103.658Z"><title>flare/vis/operator/SortOperator
2,023</title></path><path fill="rgb(110, 64, 170)" d="M345.283,-133.52A370.2,370.2,0,0,1,346.052,-131.515L260.197,-99.016A278.4,278.4,0,0,0,259.706,-100.297Z"><title>flare/vis/operator/IOperator
1,286</title></path><path fill="rgb(110, 64, 170)" d="M346.431,-130.514A370.2,370.2,0,0,1,360.584,-83.829L271.136,-63.181A278.4,278.4,0,0,0,260.576,-98.015Z"><title>flare/vis/data/Data
20,544</title></path><path fill="rgb(110, 64, 170)" d="M360.845,-82.698A370.2,370.2,0,0,1,368.41,-36.364L277.039,-27.49A278.4,278.4,0,0,0,271.397,-62.051Z"><title>flare/vis/data/DataList
19,788</title></path><path fill="rgb(110, 64, 170)" d="M368.522,-35.209A370.2,370.2,0,0,1,370.045,10.728L278.287,7.924A278.4,278.4,0,0,0,277.152,-26.335Z"><title>flare/vis/data/NodeSprite
19,382</title></path><path fill="rgb(110, 64, 170)" d="M370.009,11.887A370.2,370.2,0,0,1,368.235,38.091L276.937,28.502A278.4,278.4,0,0,0,278.252,9.083Z"><title>flare/vis/data/ScaleBinding
11,275</title></path><path fill="rgb(110, 64, 170)" d="M368.114,39.245A370.2,370.2,0,0,1,364.795,63.027L274.36,47.256A278.4,278.4,0,0,0,276.816,29.656Z"><title>flare/vis/data/DataSprite
10,349</title></path><path fill="rgb(110, 64, 170)" d="M364.596,64.17A370.2,370.2,0,0,1,359.909,86.68L270.695,65.046A278.4,278.4,0,0,0,274.161,48.399Z"><title>flare/vis/data/TreeBuilder
9,930</title></path><path fill="rgb(110, 64, 170)" d="M359.636,87.808A370.2,370.2,0,0,1,354.25,107.493L266.447,80.7A278.4,278.4,0,0,0,270.421,66.173Z"><title>flare/vis/data/render
8,867</title></path><path fill="rgb(110, 64, 170)" d="M353.912,108.603A370.2,370.2,0,0,1,348.813,124.006L262.365,93.12A278.4,278.4,0,0,0,266.109,81.81Z"><title>flare/vis/data/Tree
7,147</title></path><path fill="rgb(110, 64, 170)" d="M348.423,125.099A370.2,370.2,0,0,1,346.041,131.543L260.283,98.789A278.4,278.4,0,0,0,261.974,94.213Z"><title>flare/vis/data/EdgeSprite
3,301</title></path><path fill="rgb(110, 64, 170)" d="M345.627,132.627A370.2,370.2,0,0,1,338.222,150.513L254.41,113.058A278.4,278.4,0,0,0,259.869,99.873Z"><title>flare/vis/controls/TooltipControl
8,435</title></path><path fill="rgb(110, 64, 170)" d="M337.749,151.572A370.2,370.2,0,0,1,329.998,167.778L248.232,126.045A278.4,278.4,0,0,0,253.937,114.117Z"><title>flare/vis/controls/SelectionControl
7,862</title></path><path fill="rgb(110, 64, 170)" d="M329.47,168.811A370.2,370.2,0,0,1,324.047,179.001L243.761,134.488A278.4,278.4,0,0,0,247.705,127.079Z"><title>flare/vis/controls/PanZoomControl
5,222</title></path><path fill="rgb(110, 64, 170)" d="M323.485,180.016A370.2,370.2,0,0,1,318.121,189.333L239.309,142.26A278.4,278.4,0,0,0,243.199,135.502Z"><title>flare/vis/controls/HoverControl
4,896</title></path><path fill="rgb(110, 64, 170)" d="M317.526,190.329A370.2,370.2,0,0,1,312.168,198.995L234.836,149.528A278.4,278.4,0,0,0,238.714,143.256Z"><title>flare/vis/controls/ControlList
4,665</title></path><path fill="rgb(110, 64, 170)" d="M311.543,199.972A370.2,370.2,0,0,1,307.07,206.776L231.005,155.381A278.4,278.4,0,0,0,234.211,150.505Z"><title>flare/vis/controls/ClickControl
3,824</title></path><path fill="rgb(110, 64, 170)" d="M306.42,207.737A370.2,370.2,0,0,1,303.169,212.454L228.073,159.653A278.4,278.4,0,0,0,230.355,156.343Z"><title>flare/vis/controls/ExpandControl
2,832</title></path><path fill="rgb(110, 64, 170)" d="M302.501,213.403A370.2,370.2,0,0,1,299.425,217.699L225.26,163.599A278.4,278.4,0,0,0,227.406,160.602Z"><title>flare/vis/controls/DragControl
2,649</title></path><path fill="rgb(110, 64, 170)" d="M298.741,218.636A370.2,370.2,0,0,1,296.336,221.885L222.939,166.748A278.4,278.4,0,0,0,224.576,164.536Z"><title>flare/vis/controls/AnchorControl
2,138</title></path><path fill="rgb(110, 64, 170)" d="M295.678,222.761A370.2,370.2,0,0,1,294.313,224.562L221.408,168.775A278.4,278.4,0,0,0,222.281,167.624Z"><title>flare/vis/controls/Control
1,353</title></path><path fill="rgb(110, 64, 170)" d="M293.823,225.202A370.2,370.2,0,0,1,293.046,226.213L220.422,170.061A278.4,278.4,0,0,0,220.919,169.415Z"><title>flare/vis/controls/IControl
763</title></path><path fill="rgb(110, 64, 170)" d="M292.513,226.901A370.2,370.2,0,0,1,259.592,263.931L195.323,198.382A278.4,278.4,0,0,0,219.889,170.749Z"><title>flare/vis/legend/Legend
20,859</title></path><path fill="rgb(110, 64, 170)" d="M258.764,264.744A370.2,370.2,0,0,1,240.722,281.249L181.139,211.413A278.4,278.4,0,0,0,194.494,199.195Z"><title>flare/vis/legend/LegendRange
10,530</title></path><path fill="rgb(110, 64, 170)" d="M239.84,282.002A370.2,370.2,0,0,1,232.085,288.417L174.646,216.807A278.4,278.4,0,0,0,180.256,212.166Z"><title>flare/vis/legend/LegendItem
4,614</title></path><path fill="rgb(110, 64, 170)" d="M231.18,289.143A370.2,370.2,0,0,1,182.652,322.004L137.484,242.084A278.4,278.4,0,0,0,173.741,217.533Z"><title>flare/vis/axis/Axis
24,593</title></path><path fill="rgb(110, 64, 170)" d="M181.642,322.574A370.2,370.2,0,0,1,168.295,329.734L126.691,247.903A278.4,278.4,0,0,0,136.474,242.655Z"><title>flare/vis/axis/CartesianAxes
6,703</title></path><path fill="rgb(110, 64, 170)" d="M167.336,330.222A370.2,370.2,0,0,1,165.393,331.2L124.49,249.016A278.4,278.4,0,0,0,125.731,248.391Z"><title>flare/vis/axis/Axes
1,302</title></path><path fill="rgb(110, 64, 170)" d="M164.726,331.532A370.2,370.2,0,0,1,163.75,332.015L123.2,249.657A278.4,278.4,0,0,0,123.823,249.348Z"><title>flare/vis/axis/AxisGridLine
652</title></path><path fill="rgb(110, 64, 170)" d="M163.31,332.232A370.2,370.2,0,0,1,162.356,332.699L122.15,250.172A278.4,278.4,0,0,0,122.759,249.873Z"><title>flare/vis/axis/AxisLabel
636</title></path><path fill="rgb(110, 64, 170)" d="M124.533,348.625A370.2,370.2,0,0,1,120.317,350.103L90.618,263.239A278.4,278.4,0,0,0,93.516,262.224Z"><title>flare/vis/events/DataEvent
2,313</title></path><path fill="rgb(110, 64, 170)" d="M119.22,350.478A370.2,370.2,0,0,1,115.983,351.562L87.359,264.339A278.4,278.4,0,0,0,89.52,263.615Z"><title>flare/vis/events/SelectionEvent
1,880</title></path><path fill="rgb(110, 64, 170)" d="M114.881,351.924A370.2,370.2,0,0,1,112.046,352.837L84.399,265.299A278.4,278.4,0,0,0,86.257,264.701Z"><title>flare/vis/events/TooltipEvent
1,701</title></path><path fill="rgb(110, 64, 170)" d="M111.087,353.14A370.2,370.2,0,0,1,109.306,353.695L82.302,265.957A278.4,278.4,0,0,0,83.44,265.602Z"><title>flare/vis/events/VisualizationEvent
1,117</title></path><path fill="rgb(191, 60, 175)" d="M-63.441,364.724A370.2,370.2,0,0,1,-77.507,361.995L-58.147,272.26A278.4,278.4,0,0,0,-47.851,274.257Z"><title>flare/util/palette/ColorPalette
6,367</title></path><path fill="rgb(191, 60, 175)" d="M-78.641,361.751A370.2,370.2,0,0,1,-82.948,360.788L-62.239,271.354A278.4,278.4,0,0,0,-59.28,272.015Z"><title>flare/util/palette/SizePalette
2,291</title></path><path fill="rgb(191, 60, 175)" d="M-84.078,360.526A370.2,370.2,0,0,1,-87.822,359.632L-65.905,270.487A278.4,278.4,0,0,0,-63.369,271.092Z"><title>flare/util/palette/ShapePalette
2,059</title></path><path fill="rgb(191, 60, 175)" d="M-88.84,359.382A370.2,370.2,0,0,1,-90.832,358.884L-68.195,269.918A278.4,278.4,0,0,0,-66.923,270.237Z"><title>flare/util/palette/Palette
1,229</title></path><path fill="rgb(191, 60, 175)" d="M-117.493,351.061A370.2,370.2,0,0,1,-137.761,343.613L-103.466,258.459A278.4,278.4,0,0,0,-88.494,263.961Z"><title>flare/util/heap/FibonacciHeap
9,354</title></path><path fill="rgb(191, 60, 175)" d="M-138.735,343.221A370.2,370.2,0,0,1,-140.642,342.444L-105.659,257.571A278.4,278.4,0,0,0,-104.44,258.067Z"><title>flare/util/heap/HeapNode
1,233</title></path><path fill="rgb(191, 60, 175)" d="M-163.771,332.005A370.2,370.2,0,0,1,-170.044,328.836L-127.75,247.359A278.4,278.4,0,0,0,-123.289,249.613Z"><title>flare/util/math/SparseMatrix
3,366</title></path><path fill="rgb(191, 60, 175)" d="M-171.074,328.301A370.2,370.2,0,0,1,-176.846,325.228L-132.867,244.649A278.4,278.4,0,0,0,-128.779,246.825Z"><title>flare/util/math/DenseMatrix
3,165</title></path><path fill="rgb(191, 60, 175)" d="M-177.864,324.673A370.2,370.2,0,0,1,-182.832,321.901L-137.369,242.149A278.4,278.4,0,0,0,-133.885,244.093Z"><title>flare/util/math/IMatrix
2,815</title></path><path fill="rgb(254, 75, 131)" d="M-262.533,261.006A370.2,370.2,0,0,1,-276.322,246.362L-207.706,185.378A278.4,278.4,0,0,0,-197.533,196.182Z"><title>flare/animate/interpolate/Interpolator
8,746</title></path><path fill="rgb(254, 75, 131)" d="M-277.093,245.495A370.2,370.2,0,0,1,-279.858,242.338L-210.366,182.353A278.4,278.4,0,0,0,-208.476,184.511Z"><title>flare/animate/interpolate/MatrixInterpolator
2,202</title></path><path fill="rgb(254, 75, 131)" d="M-280.616,241.46A370.2,370.2,0,0,1,-283.092,238.551L-212.8,179.507A278.4,278.4,0,0,0,-211.124,181.475Z"><title>flare/animate/interpolate/ColorInterpolator
2,047</title></path><path fill="rgb(254, 75, 131)" d="M-283.838,237.663A370.2,370.2,0,0,1,-286.268,234.731L-215.19,176.635A278.4,278.4,0,0,0,-213.546,178.619Z"><title>flare/animate/interpolate/RectangleInterpolator
2,042</title></path><path fill="rgb(254, 75, 131)" d="M-287.002,233.833A370.2,370.2,0,0,1,-289.302,230.981L-217.473,173.816A278.4,278.4,0,0,0,-215.924,175.737Z"><title>flare/animate/interpolate/ArrayInterpolator
1,983</title></path><path fill="rgb(254, 75, 131)" d="M-290.025,230.073A370.2,370.2,0,0,1,-291.827,227.783L-219.373,171.412A278.4,278.4,0,0,0,-218.195,172.908Z"><title>flare/animate/interpolate/PointInterpolator
1,675</title></path><path fill="rgb(254, 75, 131)" d="M-292.54,226.867A370.2,370.2,0,0,1,-294.249,224.646L-221.195,169.054A278.4,278.4,0,0,0,-220.085,170.496Z"><title>flare/animate/interpolate/ObjectInterpolator
1,629</title></path><path fill="rgb(254, 75, 131)" d="M-294.919,223.765A370.2,370.2,0,0,1,-296.309,221.921L-222.754,166.995A278.4,278.4,0,0,0,-221.866,168.173Z"><title>flare/animate/interpolate/NumberInterpolator
1,382</title></path><path fill="rgb(254, 75, 131)" d="M-296.938,221.079A370.2,370.2,0,0,1,-298.304,219.233L-224.255,164.974A278.4,278.4,0,0,0,-223.382,166.153Z"><title>flare/animate/interpolate/DateInterpolator
1,375</title></path><path fill="rgb(255, 120, 71)" d="M-367.268,46.503A370.2,370.2,0,0,1,-367.427,45.223L-276.306,34.081A278.4,278.4,0,0,0,-276.204,34.899Z"><title>flare/query/methods/range
772</title></path><path fill="rgb(255, 120, 71)" d="M-367.498,44.648A370.2,370.2,0,0,1,-367.646,43.407L-276.471,32.714A278.4,278.4,0,0,0,-276.376,33.506Z"><title>flare/query/methods/iff
748</title></path><path fill="rgb(255, 120, 71)" d="M-367.707,42.888A370.2,370.2,0,0,1,-367.827,41.85L-276.609,31.531A278.4,278.4,0,0,0,-276.532,32.194Z"><title>flare/query/methods/gte
625</title></path><path fill="rgb(255, 120, 71)" d="M-367.88,41.379A370.2,370.2,0,0,1,-367.994,40.352L-276.735,30.404A278.4,278.4,0,0,0,-276.662,31.06Z"><title>flare/query/methods/lte
619</title></path><path fill="rgb(255, 120, 71)" d="M-368.045,39.889A370.2,370.2,0,0,1,-368.152,38.887L-276.854,29.301A278.4,278.4,0,0,0,-276.785,29.941Z"><title>flare/query/methods/gt
603</title></path><path fill="rgb(255, 120, 71)" d="M-368.2,38.43A370.2,370.2,0,0,1,-368.303,37.428L-276.968,28.203A278.4,278.4,0,0,0,-276.902,28.844Z"><title>flare/query/methods/mul
603</title></path><path fill="rgb(255, 120, 71)" d="M-368.349,36.972A370.2,370.2,0,0,1,-368.448,35.974L-277.077,27.11A278.4,278.4,0,0,0,-277.014,27.747Z"><title>flare/query/methods/sub
600</title></path><path fill="rgb(255, 120, 71)" d="M-368.492,35.519A370.2,370.2,0,0,1,-368.587,34.523L-277.182,26.019A278.4,278.4,0,0,0,-277.121,26.655Z"><title>flare/query/methods/neq
599</title></path><path fill="rgb(255, 120, 71)" d="M-368.629,34.069A370.2,370.2,0,0,1,-368.719,33.076L-277.282,24.93A278.4,278.4,0,0,0,-277.224,25.565Z"><title>flare/query/methods/lt
597</title></path><path fill="rgb(255, 120, 71)" d="M-368.76,32.624A370.2,370.2,0,0,1,-368.846,31.633L-277.377,23.845A278.4,278.4,0,0,0,-277.322,24.478Z"><title>flare/query/methods/div
595</title></path><path fill="rgb(255, 120, 71)" d="M-368.884,31.182A370.2,370.2,0,0,1,-368.967,30.193L-277.468,22.762A278.4,278.4,0,0,0,-277.415,23.394Z"><title>flare/query/methods/eq
594</title></path><path fill="rgb(255, 120, 71)" d="M-369.003,29.742A370.2,370.2,0,0,1,-369.082,28.755L-277.555,21.68A278.4,278.4,0,0,0,-277.505,22.311Z"><title>flare/query/methods/add
593</title></path><path fill="rgb(255, 120, 71)" d="M-369.116,28.305A370.2,370.2,0,0,1,-369.191,27.32L-277.637,20.601A278.4,278.4,0,0,0,-277.589,21.23Z"><title>flare/query/methods/mod
591</title></path><path fill="rgb(255, 120, 71)" d="M-369.22,26.92A370.2,370.2,0,0,1,-369.275,26.152L-277.701,19.711A278.4,278.4,0,0,0,-277.666,20.201Z"><title>flare/query/methods/isa
461</title></path><path fill="rgb(255, 120, 71)" d="M-369.3,25.802A370.2,370.2,0,0,1,-369.352,25.035L-277.76,18.871A278.4,278.4,0,0,0,-277.726,19.36Z"><title>flare/query/methods/fn
460</title></path><path fill="rgb(255, 120, 71)" d="M-369.374,24.714A370.2,370.2,0,0,1,-369.417,24.07L-277.809,18.138A278.4,278.4,0,0,0,-277.781,18.549Z"><title>flare/query/methods/not
386</title></path><path fill="rgb(255, 120, 71)" d="M-369.435,23.785A370.2,370.2,0,0,1,-369.474,23.18L-277.852,17.466A278.4,278.4,0,0,0,-277.827,17.853Z"><title>flare/query/methods/stddev
363</title></path><path fill="rgb(255, 120, 71)" d="M-369.491,22.908A370.2,370.2,0,0,1,-369.527,22.317L-277.892,16.817A278.4,278.4,0,0,0,-277.869,17.194Z"><title>flare/query/methods/xor
354</title></path><path fill="rgb(255, 120, 71)" d="M-369.542,22.055A370.2,370.2,0,0,1,-369.575,21.497L-277.928,16.198A278.4,278.4,0,0,0,-277.907,16.554Z"><title>flare/query/methods/variance
335</title></path><path fill="rgb(255, 120, 71)" d="M-369.59,21.243A370.2,370.2,0,0,1,-369.621,20.693L-277.963,15.593A278.4,278.4,0,0,0,-277.943,15.945Z"><title>flare/query/methods/and
330</title></path><path fill="rgb(255, 120, 71)" d="M-369.635,20.445A370.2,370.2,0,0,1,-369.664,19.906L-277.996,15A278.4,278.4,0,0,0,-277.977,15.344Z"><title>flare/query/methods/or
323</title></path><path fill="rgb(255, 120, 71)" d="M-369.677,19.666A370.2,370.2,0,0,1,-369.704,19.154L-278.026,14.433A278.4,278.4,0,0,0,-278.008,14.76Z"><title>flare/query/methods/orderby
307</title></path><path fill="rgb(255, 120, 71)" d="M-369.716,18.92A370.2,370.2,0,0,1,-369.742,18.408L-278.054,13.872A278.4,278.4,0,0,0,-278.038,14.2Z"><title>flare/query/methods/update
307</title></path><path fill="rgb(255, 120, 71)" d="M-369.753,18.177A370.2,370.2,0,0,1,-369.778,17.678L-278.081,13.323A278.4,278.4,0,0,0,-278.066,13.642Z"><title>flare/query/methods/where
299</title></path><path fill="rgb(255, 120, 71)" d="M-369.788,17.452A370.2,370.2,0,0,1,-369.811,16.958L-278.106,12.781A278.4,278.4,0,0,0,-278.092,13.096Z"><title>flare/query/methods/select
296</title></path><path fill="rgb(255, 120, 71)" d="M-369.822,16.734A370.2,370.2,0,0,1,-369.843,16.247L-278.131,12.246A278.4,278.4,0,0,0,-278.117,12.557Z"><title>flare/query/methods/distinct
292</title></path><path fill="rgb(255, 120, 71)" d="M-369.853,16.026A370.2,370.2,0,0,1,-369.873,15.547L-278.153,11.719A278.4,278.4,0,0,0,-278.14,12.025Z"><title>flare/query/methods/average
287</title></path><path fill="rgb(255, 120, 71)" d="M-369.882,15.33A370.2,370.2,0,0,1,-369.902,14.858L-278.175,11.2A278.4,278.4,0,0,0,-278.162,11.502Z"><title>flare/query/methods/max
283</title></path><path fill="rgb(255, 120, 71)" d="M-369.91,14.642A370.2,370.2,0,0,1,-369.929,14.17L-278.195,10.683A278.4,278.4,0,0,0,-278.183,10.985Z"><title>flare/query/methods/min
283</title></path><path fill="rgb(255, 120, 71)" d="M-369.937,13.956A370.2,370.2,0,0,1,-369.954,13.488L-278.214,10.17A278.4,278.4,0,0,0,-278.203,10.469Z"><title>flare/query/methods/sum
280</title></path><path fill="rgb(255, 120, 71)" d="M-369.962,13.276A370.2,370.2,0,0,1,-369.978,12.814L-278.232,9.662A278.4,278.4,0,0,0,-278.222,9.958Z"><title>flare/query/methods/count
277</title></path><path fill="rgb(255, 120, 71)" d="M-369.985,12.608A370.2,370.2,0,0,1,-370,12.167L-278.249,9.175A278.4,278.4,0,0,0,-278.239,9.456Z"><title>flare/query/methods/_
264</title></path><path fill="rgb(226, 183, 47)" d="M-330.988,-165.816A370.2,370.2,0,0,1,-322.581,-181.631L-242.66,-136.466A278.4,278.4,0,0,0,-248.847,-124.826Z"><title>flare/analytics/graph/MaxFlowMinCut
7,840</title></path><path fill="rgb(226, 183, 47)" d="M-322.01,-182.641A370.2,370.2,0,0,1,-315.28,-194.027L-237.174,-145.791A278.4,278.4,0,0,0,-242.089,-137.476Z"><title>flare/analytics/graph/ShortestPaths
5,914</title></path><path fill="rgb(226, 183, 47)" d="M-314.671,-195.014A370.2,370.2,0,0,1,-307.751,-205.761L-231.517,-154.618A278.4,278.4,0,0,0,-236.565,-146.778Z"><title>flare/analytics/graph/LinkDistance
5,731</title></path><path fill="rgb(226, 183, 47)" d="M-307.105,-206.724A370.2,370.2,0,0,1,-302.89,-212.852L-227.864,-159.952A278.4,278.4,0,0,0,-230.87,-155.581Z"><title>flare/analytics/graph/BetweennessCentrality
3,534</title></path><path fill="rgb(226, 183, 47)" d="M-302.221,-213.8A370.2,370.2,0,0,1,-298.036,-219.597L-224.216,-165.027A278.4,278.4,0,0,0,-227.195,-160.9Z"><title>flare/analytics/graph/SpanningTree
3,416</title></path><path fill="rgb(226, 183, 47)" d="M-297.346,-220.529A370.2,370.2,0,0,1,-288.06,-232.528L-216.719,-174.755A278.4,278.4,0,0,0,-223.526,-165.959Z"><title>flare/analytics/cluster/HierarchicalCluster
6,714</title></path><path fill="rgb(226, 183, 47)" d="M-287.33,-233.43A370.2,370.2,0,0,1,-281.947,-239.904L-212.125,-180.305A278.4,278.4,0,0,0,-215.989,-175.657Z"><title>flare/analytics/cluster/AgglomerativeCluster
3,938</title></path><path fill="rgb(226, 183, 47)" d="M-281.194,-240.786A370.2,370.2,0,0,1,-275.849,-246.891L-207.542,-185.561A278.4,278.4,0,0,0,-211.371,-181.187Z"><title>flare/analytics/cluster/CommunityStructure
3,812</title></path><path fill="rgb(226, 183, 47)" d="M-275.273,-247.534A370.2,370.2,0,0,1,-274.441,-248.455L-206.434,-186.793A278.4,278.4,0,0,0,-206.965,-186.204Z"><title>flare/analytics/cluster/MergeEdge
743</title></path><path fill="rgb(226, 183, 47)" d="M-273.861,-249.094A370.2,370.2,0,0,1,-262.808,-260.729L-197.74,-195.973A278.4,278.4,0,0,0,-205.854,-187.432Z"><title>flare/analytics/optimization/AspectRatioBanker
7,074</title></path><path fill="rgb(82, 246, 103)" d="M-203.06,-309.539A370.2,370.2,0,0,1,-183.727,-321.392L-138.292,-241.623A278.4,278.4,0,0,0,-152.586,-232.86Z"><title>flare/data/converters/GraphMLConverter
9,800</title></path><path fill="rgb(82, 246, 103)" d="M-182.719,-321.966A370.2,370.2,0,0,1,-174.586,-326.447L-131.42,-245.429A278.4,278.4,0,0,0,-137.284,-242.197Z"><title>flare/data/converters/DelimitedTextConverter
4,294</title></path><path fill="rgb(82, 246, 103)" d="M-173.562,-326.993A370.2,370.2,0,0,1,-169.805,-328.959L-127.826,-247.32A278.4,278.4,0,0,0,-130.396,-245.974Z"><title>flare/data/converters/JSONConverter
2,220</title></path><path fill="rgb(82, 246, 103)" d="M-168.844,-329.454A370.2,370.2,0,0,1,-166.887,-330.449L-125.615,-248.45A278.4,278.4,0,0,0,-126.864,-247.814Z"><title>flare/data/converters/IDataConverter
1,314</title></path><path fill="rgb(82, 246, 103)" d="M-166.195,-330.798A370.2,370.2,0,0,1,-165.118,-331.337L-124.234,-249.144A278.4,278.4,0,0,0,-124.922,-248.799Z"><title>flare/data/converters/Converters
721</title></path><path fill="rgb(110, 64, 170)" d="M0.58,-463A463,463,0,0,1,38.534,-461.394L30.779,-369.922A371.2,371.2,0,0,0,0.58,-371.2Z"><title>flare/vis/operator/layout/NodeLinkTreeLayout
12,870</title></path><path fill="rgb(110, 64, 170)" d="M39.689,-461.296A463,463,0,0,1,75.805,-456.752L60.662,-366.21A371.2,371.2,0,0,0,31.935,-369.824Z"><title>flare/vis/operator/layout/RadialTreeLayout
12,348</title></path><path fill="rgb(110, 64, 170)" d="M76.949,-456.561A463,463,0,0,1,111.56,-449.359L89.329,-360.291A371.2,371.2,0,0,0,61.806,-366.018Z"><title>flare/vis/operator/layout/CirclePackingLayout
12,003</title></path><path fill="rgb(110, 64, 170)" d="M112.685,-449.078A463,463,0,0,1,138.846,-441.691L111.207,-354.15A371.2,371.2,0,0,0,90.454,-360.01Z"><title>flare/vis/operator/layout/CircleLayout
9,317</title></path><path fill="rgb(110, 64, 170)" d="M139.952,-441.341A463,463,0,0,1,165.254,-432.504L132.382,-346.792A371.2,371.2,0,0,0,112.313,-353.801Z"><title>flare/vis/operator/layout/TreeMapLayout
9,191</title></path><path fill="rgb(110, 64, 170)" d="M166.337,-432.089A463,463,0,0,1,190.866,-421.829L152.918,-338.239A371.2,371.2,0,0,0,133.465,-346.376Z"><title>flare/vis/operator/layout/StackedAreaLayout
9,121</title></path><path fill="rgb(110, 64, 170)" d="M191.922,-421.349A463,463,0,0,1,213.878,-410.64L171.37,-329.275A371.2,371.2,0,0,0,153.974,-337.76Z"><title>flare/vis/operator/layout/ForceDirectedLayout
8,411</title></path><path fill="rgb(110, 64, 170)" d="M214.906,-410.103A463,463,0,0,1,234.849,-399.018L188.186,-319.962A371.2,371.2,0,0,0,172.398,-328.738Z"><title>flare/vis/operator/layout/Layout
7,881</title></path><path fill="rgb(110, 64, 170)" d="M235.848,-398.428A463,463,0,0,1,252.248,-388.253L202.137,-311.336A371.2,371.2,0,0,0,189.185,-319.372Z"><title>flare/vis/operator/layout/AxisLayout
6,725</title></path><path fill="rgb(110, 64, 170)" d="M253.219,-387.62A463,463,0,0,1,264.527,-379.993L211.984,-304.717A371.2,371.2,0,0,0,203.109,-310.702Z"><title>flare/vis/operator/layout/IcicleTreeLayout
4,864</title></path><path fill="rgb(110, 64, 170)" d="M265.478,-379.329A463,463,0,0,1,276.509,-371.365L221.592,-297.802A371.2,371.2,0,0,0,212.935,-304.053Z"><title>flare/vis/operator/layout/DendrogramLayout
4,853</title></path><path fill="rgb(110, 64, 170)" d="M277.438,-370.671A463,463,0,0,1,285.52,-364.482L228.819,-292.286A371.2,371.2,0,0,0,222.522,-297.108Z"><title>flare/vis/operator/layout/BundledEdgeRouter
3,727</title></path><path fill="rgb(110, 64, 170)" d="M286.432,-363.766A463,463,0,0,1,293.06,-358.448L234.865,-287.451A371.2,371.2,0,0,0,229.731,-291.57Z"><title>flare/vis/operator/layout/IndentedTreeLayout
3,174</title></path><path fill="rgb(110, 64, 170)" d="M293.957,-357.713A463,463,0,0,1,299.438,-353.137L239.98,-283.194A371.2,371.2,0,0,0,235.762,-286.715Z"><title>flare/vis/operator/layout/PieLayout
2,728</title></path><path fill="rgb(110, 64, 170)" d="M300.133,-352.547A463,463,0,0,1,301.641,-351.258L241.784,-281.656A371.2,371.2,0,0,0,240.675,-282.604Z"><title>flare/vis/operator/layout/RandomLayout
870</title></path><path fill="rgb(110, 64, 170)" d="M302.332,-350.663A463,463,0,0,1,323.783,-330.959L259.503,-265.419A371.2,371.2,0,0,0,242.475,-281.061Z"><title>flare/vis/operator/label/Labeler
9,956</title></path><path fill="rgb(110, 64, 170)" d="M324.611,-330.147A463,463,0,0,1,332.155,-322.555L266.218,-258.684A371.2,371.2,0,0,0,260.332,-264.607Z"><title>flare/vis/operator/label/RadialLabeler
3,899</title></path><path fill="rgb(110, 64, 170)" d="M332.963,-321.722A463,463,0,0,1,338.869,-315.495L271.602,-253.025A371.2,371.2,0,0,0,267.025,-257.851Z"><title>flare/vis/operator/label/StackedAreaLabeler
3,202</title></path><path fill="rgb(110, 64, 170)" d="M339.658,-314.645A463,463,0,0,1,347.321,-306.165L278.381,-245.547A371.2,371.2,0,0,0,272.391,-252.175Z"><title>flare/vis/operator/encoder/PropertyEncoder
4,138</title></path><path fill="rgb(110, 64, 170)" d="M348.087,-305.294A463,463,0,0,1,355.365,-296.79L284.833,-238.033A371.2,371.2,0,0,0,279.147,-244.676Z"><title>flare/vis/operator/encoder/Encoder
4,060</title></path><path fill="rgb(110, 64, 170)" d="M356.108,-295.899A463,463,0,0,1,361.488,-289.302L289.743,-232.031A371.2,371.2,0,0,0,285.575,-237.142Z"><title>flare/vis/operator/encoder/ColorEncoder
3,179</title></path><path fill="rgb(110, 64, 170)" d="M362.211,-288.396A463,463,0,0,1,364.94,-284.934L292.512,-228.53A371.2,371.2,0,0,0,290.466,-231.125Z"><title>flare/vis/operator/encoder/SizeEncoder
1,830</title></path><path fill="rgb(110, 64, 170)" d="M365.653,-284.019A463,463,0,0,1,368.082,-280.864L295.032,-225.268A371.2,371.2,0,0,0,293.225,-227.615Z"><title>flare/vis/operator/encoder/ShapeEncoder
1,690</title></path><path fill="rgb(110, 64, 170)" d="M368.785,-279.941A463,463,0,0,1,379.416,-265.354L304.122,-212.836A371.2,371.2,0,0,0,295.735,-224.345Z"><title>flare/vis/operator/distortion/Distortion
6,314</title></path><path fill="rgb(110, 64, 170)" d="M380.079,-264.402A463,463,0,0,1,387.031,-254.119L310.23,-203.83A371.2,371.2,0,0,0,304.786,-211.884Z"><title>flare/vis/operator/distortion/BifocalDistortion
4,461</title></path><path fill="rgb(110, 64, 170)" d="M387.666,-253.148A463,463,0,0,1,392.682,-245.295L314.763,-196.757A371.2,371.2,0,0,0,310.866,-202.86Z"><title>flare/vis/operator/distortion/FisheyeDistortion
3,444</title></path><path fill="rgb(110, 64, 170)" d="M393.296,-244.31A463,463,0,0,1,400.863,-231.686L321.325,-185.848A371.2,371.2,0,0,0,315.377,-195.773Z"><title>flare/vis/operator/filter/FisheyeTreeFilter
5,219</title></path><path fill="rgb(110, 64, 170)" d="M401.442,-230.681A463,463,0,0,1,406.098,-222.381L325.525,-178.39A371.2,371.2,0,0,0,321.904,-184.843Z"><title>flare/vis/operator/filter/VisibilityFilter
3,509</title></path><path fill="rgb(110, 64, 170)" d="M406.654,-221.363A463,463,0,0,1,410.635,-213.887L329.164,-171.581A371.2,371.2,0,0,0,326.081,-177.372Z"><title>flare/vis/operator/filter/GraphDistanceFilter
3,165</title></path><path fill="rgb(110, 64, 170)" d="M449.822,109.678A463,463,0,0,1,445.822,124.946L357.459,100.062A371.2,371.2,0,0,0,360.608,88.043Z"><title>flare/vis/data/render/EdgeRenderer
5,569</title></path><path fill="rgb(110, 64, 170)" d="M445.508,126.063A463,463,0,0,1,443.929,131.515L355.943,105.329A371.2,371.2,0,0,0,357.145,101.179Z"><title>flare/vis/data/render/ShapeRenderer
2,247</title></path><path fill="rgb(110, 64, 170)" d="M443.688,132.326A463,463,0,0,1,443.23,133.851L355.365,107.261A371.2,371.2,0,0,0,355.702,106.14Z"><title>flare/vis/data/render/ArrowType
698</title></path><path fill="rgb(110, 64, 170)" d="M443.114,134.234A463,463,0,0,1,442.88,135.004L355.077,108.211A371.2,371.2,0,0,0,355.249,107.645Z"><title>flare/vis/data/render/IRenderer
353</title></path></g><g pointer-events="none" text-anchor="middle" font-size="10" font-family="sans-serif"><text transform="rotate(-8.553647049718208) translate(139.2,0) rotate(0)" dy="0.35em">vis</text><text transform="rotate(103.98501666616113) translate(139.2,0) rotate(180)" dy="0.35em">util</text><text transform="rotate(153.90775721686092) translate(139.2,0) rotate(180)" dy="0.35em">animate</text><text transform="rotate(189.62898311838677) translate(139.2,0) rotate(180)" dy="0.35em">query</text><text transform="rotate(215.69101031346185) translate(139.2,0) rotate(180)" dy="0.35em">analytics</text><text transform="rotate(230.75362215767956) translate(139.2,0) rotate(180)" dy="0.35em">scale</text><text transform="rotate(242.34624198199202) translate(139.2,0) rotate(180)" dy="0.35em">data</text><text transform="rotate(253.6828294090024) translate(139.2,0) rotate(180)" dy="0.35em">physics</text><text transform="rotate(263.8842143685633) translate(139.2,0) rotate(180)" dy="0.35em">display</text><text transform="rotate(-55.3665352687765) translate(232,0) rotate(0)" dy="0.35em">operator</text><text transform="rotate(0.08518724983761672) translate(232,0) rotate(0)" dy="0.35em">data</text><text transform="rotate(29.307143701320612) translate(232,0) rotate(0)" dy="0.35em">controls</text><text transform="rotate(44.488735306637466) translate(232,0) rotate(0)" dy="0.35em">legend</text><text transform="rotate(57.645976641227236) translate(232,0) rotate(0)" dy="0.35em">axis</text><text transform="rotate(67.13913080766295) translate(232,0) rotate(0)" dy="0.35em">Visualization</text><text transform="rotate(71.57282124064847) translate(232,0) rotate(0)" dy="0.35em">events</text><text transform="rotate(77.03930118216263) translate(232,0) rotate(0)" dy="0.35em">Strings</text><text transform="rotate(84.7850342370119) translate(232,0) rotate(0)" dy="0.35em">Shapes</text><text transform="rotate(91.71729965308026) translate(232,0) rotate(180)" dy="0.35em">Maths</text><text transform="rotate(97.4140204930506) translate(232,0) rotate(180)" dy="0.35em">Displays</text><text transform="rotate(102.02655708591624) translate(232,0) rotate(180)" dy="0.35em">palette</text><text transform="rotate(106.3450329401158) translate(232,0) rotate(180)" dy="0.35em">Geometry</text><text transform="rotate(110.40766465612899) translate(232,0) rotate(180)" dy="0.35em">heap</text><text transform="rotate(114.28354332940427) translate(232,0) rotate(180)" dy="0.35em">Colors</text><text transform="rotate(117.92579244014141) translate(232,0) rotate(180)" dy="0.35em">math</text><text transform="rotate(121.23990591227746) translate(232,0) rotate(180)" dy="0.35em">Arrays</text><text transform="rotate(124.34147484282974) translate(232,0) rotate(180)" dy="0.35em">Dates</text><text transform="rotate(127.18494052580766) translate(232,0) rotate(180)" dy="0.35em">Sort</text><text transform="rotate(139.4225360803824) translate(232,0) rotate(180)" dy="0.35em">interpolate</text><text transform="rotate(147.52822056437984) translate(232,0) rotate(180)" dy="0.35em">Transitioner</text><text transform="rotate(154.4909839571856) translate(232,0) rotate(180)" dy="0.35em">Easing</text><text transform="rotate(159.42544363783537) translate(232,0) rotate(180)" dy="0.35em">Transition</text><text transform="rotate(175.43518709295506) translate(232,0) rotate(180)" dy="0.35em">methods</text><text transform="rotate(180.74823585520363) translate(232,0) rotate(180)" dy="0.35em">Query</text><text transform="rotate(211.49640895736877) translate(232,0) rotate(180)" dy="0.35em">graph</text><text transform="rotate(219.33589505181834) translate(232,0) rotate(180)" dy="0.35em">cluster</text><text transform="rotate(223.53049640791147) translate(232,0) rotate(180)" dy="0.35em">optimization</text><text transform="rotate(240.09936943655094) translate(232,0) rotate(180)" dy="0.35em">converters</text><text transform="rotate(250.02382523697122) translate(232,0) rotate(180)" dy="0.35em">NBodyForce</text><text transform="rotate(253.8795601848705) translate(232,0) rotate(180)" dy="0.35em">Simulation</text><text transform="rotate(261.21319403553287) translate(232,0) rotate(180)" dy="0.35em">TextSprite</text><text transform="rotate(264.771103062453) translate(232,0) rotate(180)" dy="0.35em">DirtySprite</text><text transform="rotate(-69.65239000176754) translate(324.79999999999995,0) rotate(0)" dy="0.35em">layout</text><text transform="rotate(-46.09364426766682) translate(324.79999999999995,0) rotate(0)" dy="0.35em">label</text><text transform="rotate(-40.07801248576291) translate(324.79999999999995,0) rotate(0)" dy="0.35em">encoder</text><text transform="rotate(-34.596660074111355) translate(324.79999999999995,0) rotate(0)" dy="0.35em">distortion</text><text transform="rotate(-29.68083804591224) translate(324.79999999999995,0) rotate(0)" dy="0.35em">filter</text><text transform="rotate(-26.453888544328237) translate(324.79999999999995,0) rotate(0)" dy="0.35em">OperatorList</text><text transform="rotate(-16.865475265366925) translate(324.79999999999995,0) rotate(0)" dy="0.35em">Data</text><text transform="rotate(-9.272608612436201) translate(324.79999999999995,0) rotate(0)" dy="0.35em">DataList</text><text transform="rotate(-1.8984990519061995) translate(324.79999999999995,0) rotate(0)" dy="0.35em">NodeSprite</text><text transform="rotate(3.872960656982457) translate(324.79999999999995,0) rotate(0)" dy="0.35em">ScaleBinding</text><text transform="rotate(7.943875774084873) translate(324.79999999999995,0) rotate(0)" dy="0.35em">DataSprite</text><text transform="rotate(11.761582380620169) translate(324.79999999999995,0) rotate(0)" dy="0.35em">TreeBuilder</text><text transform="rotate(15.300288977742525) translate(324.79999999999995,0) rotate(0)" dy="0.35em">render</text><text transform="rotate(18.31507045597401) translate(324.79999999999995,0) rotate(0)" dy="0.35em">Tree</text><text transform="rotate(22.491410677847853) translate(324.79999999999995,0) rotate(0)" dy="0.35em">TooltipControl</text><text transform="rotate(25.559469485812045) translate(324.79999999999995,0) rotate(0)" dy="0.35em">SelectionControl</text><text transform="rotate(28.02265175515018) translate(324.79999999999995,0) rotate(0)" dy="0.35em">PanZoomControl</text><text transform="rotate(29.92745748743107) translate(324.79999999999995,0) rotate(0)" dy="0.35em">HoverControl</text><text transform="rotate(41.637739259033026) translate(324.79999999999995,0) rotate(0)" dy="0.35em">Legend</text><text transform="rotate(47.547004640587176) translate(324.79999999999995,0) rotate(0)" dy="0.35em">LegendRange</text><text transform="rotate(55.89648467936854) translate(324.79999999999995,0) rotate(0)" dy="0.35em">Axis</text><text transform="rotate(61.78824196316603) translate(324.79999999999995,0) rotate(0)" dy="0.35em">CartesianAxes</text><text transform="rotate(100.97625947963087) translate(324.79999999999995,0) rotate(180)" dy="0.35em">ColorPalette</text><text transform="rotate(110.17554116651621) translate(324.79999999999995,0) rotate(180)" dy="0.35em">FibonacciHeap</text><text transform="rotate(136.72384165734954) translate(324.79999999999995,0) rotate(180)" dy="0.35em">Interpolator</text><text transform="rotate(207.9957307016104) translate(324.79999999999995,0) rotate(180)" dy="0.35em">MaxFlowMinCut</text><text transform="rotate(210.58504657844287) translate(324.79999999999995,0) rotate(180)" dy="0.35em">ShortestPaths</text><text transform="rotate(212.77732398034158) translate(324.79999999999995,0) rotate(180)" dy="0.35em">LinkDistance</text><text transform="rotate(217.73701038249027) translate(324.79999999999995,0) rotate(180)" dy="0.35em">HierarchicalCluster</text><text transform="rotate(223.53049640791147) translate(324.79999999999995,0) rotate(180)" dy="0.35em">AspectRatioBanker</text><text transform="rotate(238.48994225674568) translate(324.79999999999995,0) rotate(180)" dy="0.35em">GraphMLConverter</text><text transform="rotate(-87.5771051814138) translate(417.6,0) rotate(0)" dy="0.35em">NodeLinkTreeLayout</text><text transform="rotate(-82.82958680261764) translate(417.6,0) rotate(0)" dy="0.35em">RadialTreeLayout</text><text transform="rotate(-78.24528907710152) translate(417.6,0) rotate(0)" dy="0.35em">CirclePackingLayout</text><text transform="rotate(-74.23160473116076) translate(417.6,0) rotate(0)" dy="0.35em">CircleLayout</text><text transform="rotate(-70.74730501846508) translate(417.6,0) rotate(0)" dy="0.35em">TreeMapLayout</text><text transform="rotate(-67.29990409243942) translate(417.6,0) rotate(0)" dy="0.35em">StackedAreaLayout</text><text transform="rotate(-63.99934527663109) translate(417.6,0) rotate(0)" dy="0.35em">ForceDirectedLayout</text><text transform="rotate(-60.93222776424521) translate(417.6,0) rotate(0)" dy="0.35em">Layout</text><text transform="rotate(-58.18251512086759) translate(417.6,0) rotate(0)" dy="0.35em">AxisLayout</text><text transform="rotate(-56.000780229446036) translate(417.6,0) rotate(0)" dy="0.35em">IcicleTreeLayout</text><text transform="rotate(-54.171466402546116) translate(417.6,0) rotate(0)" dy="0.35em">DendrogramLayout</text><text transform="rotate(-52.556203190155315) translate(417.6,0) rotate(0)" dy="0.35em">BundledEdgeRouter</text><text transform="rotate(-47.430472247991645) translate(417.6,0) rotate(0)" dy="0.35em">Labeler</text><text transform="rotate(-44.82214220047715) translate(417.6,0) rotate(0)" dy="0.35em">RadialLabeler</text><text transform="rotate(-42.10349231118396) translate(417.6,0) rotate(0)" dy="0.35em">PropertyEncoder</text><text transform="rotate(-40.56014408097653) translate(417.6,0) rotate(0)" dy="0.35em">Encoder</text><text transform="rotate(-36.084848383429446) translate(417.6,0) rotate(0)" dy="0.35em">Distortion</text><text transform="rotate(-34.0563564121578) translate(417.6,0) rotate(0)" dy="0.35em">BifocalDistortion</text><text transform="rotate(-30.937279383848846) translate(417.6,0) rotate(0)" dy="0.35em">FisheyeTreeFilter</text><text transform="rotate(14.679410414285101) translate(417.6,0) rotate(0)" dy="0.35em">EdgeRenderer</text></g></svg>